<?xml version="1.0" encoding="UTF-8"?>
<!-- Do not edit this file with editors other than draw.io -->
<!DOCTYPE svg PUBLIC "-//W3C//DTD SVG 1.1//EN" "http://www.w3.org/Graphics/SVG/1.1/DTD/svg11.dtd">
<svg xmlns="http://www.w3.org/2000/svg" xmlns:xlink="http://www.w3.org/1999/xlink" version="1.1" width="197px" height="197px" viewBox="-0.5 -0.5 197 197" content="&lt;mxfile host=&quot;Electron&quot; agent=&quot;Mozilla/5.0 (Macintosh; Intel Mac OS X 10_15_7) AppleWebKit/537.36 (KHTML, like Gecko) draw.io/24.7.17 Chrome/128.0.6613.36 Electron/32.0.1 Safari/537.36&quot; version=&quot;24.7.17&quot; scale=&quot;1&quot; border=&quot;0&quot;&gt;&#10;  &lt;diagram name=&quot;Page-1&quot; id=&quot;hZXzCjLfLjPwAEtCwnhz&quot;&gt;&#10;    &lt;mxGraphModel dx=&quot;641&quot; dy=&quot;464&quot; grid=&quot;1&quot; gridSize=&quot;10&quot; guides=&quot;1&quot; tooltips=&quot;1&quot; connect=&quot;1&quot; arrows=&quot;1&quot; fold=&quot;1&quot; page=&quot;1&quot; pageScale=&quot;1&quot; pageWidth=&quot;827&quot; pageHeight=&quot;1169&quot; math=&quot;0&quot; shadow=&quot;0&quot;&gt;&#10;      &lt;root&gt;&#10;        &lt;mxCell id=&quot;0&quot; /&gt;&#10;        &lt;mxCell id=&quot;1&quot; parent=&quot;0&quot; /&gt;&#10;        &lt;mxCell id=&quot;2&quot; value=&quot;&quot; style=&quot;sketch=0;pointerEvents=1;shadow=0;dashed=0;html=1;strokeColor=default;fillColor=none;labelPosition=center;verticalLabelPosition=bottom;verticalAlign=top;outlineConnect=0;align=center;shape=mxgraph.office.concepts.settings;direction=west;flipV=0;rotation=22.1;&quot; vertex=&quot;1&quot; parent=&quot;1&quot;&gt;&#10;          &lt;mxGeometry x=&quot;400&quot; y=&quot;200&quot; width=&quot;150&quot; height=&quot;150&quot; as=&quot;geometry&quot; /&gt;&#10;        &lt;/mxCell&gt;&#10;      &lt;/root&gt;&#10;    &lt;/mxGraphModel&gt;&#10;  &lt;/diagram&gt;&#10;&lt;/mxfile&gt;&#10;"><defs/><g><g data-cell-id="0"><g data-cell-id="1"><g data-cell-id="abqtyagXLSSpsyh-VU5P-3"/><g data-cell-id="abqtyagXLSSpsyh-VU5P-4"/><g data-cell-id="abqtyagXLSSpsyh-VU5P-6"/><g data-cell-id="abqtyagXLSSpsyh-VU5P-8"/><g data-cell-id="abqtyagXLSSpsyh-VU5P-9"/><g data-cell-id="abqtyagXLSSpsyh-VU5P-10"/><g data-cell-id="abqtyagXLSSpsyh-VU5P-12"><g><rect x="23" y="23" width="150" height="150" fill="none" stroke="none" transform="rotate(202.1,98,98)" pointer-events="all"/><path d="M 41.69 87.75 L 26.2 81.33 C 23.94 80.08 23 78.28 23.88 75.7 L 29.78 61.58 C 31.07 59.45 32.77 58.22 35.41 59.29 L 49.88 66.58 C 54.5 61.11 59.56 55.67 65.18 50.96 L 58.84 35.42 C 58.36 33.57 58.18 31.74 60.85 30.01 L 75.39 23.88 C 78.18 23 79.75 24.19 80.69 25.83 L 87.2 41.74 C 93.73 40.45 100.2 39.86 107.83 42.09 L 114.36 25.92 C 115.78 23.69 117.63 23.06 119.83 23.88 L 134.31 30.01 C 136.69 31.52 136.91 33.31 136.35 35.23 L 129.91 51.14 C 135.56 55.67 140.78 60.52 144.98 65.99 L 160.56 59.64 C 163.36 58.85 165.02 59.92 166.06 61.99 L 172.15 76.46 C 172.56 78.6 172.09 80.39 169.98 81.58 L 154.16 88 C 154.91 94.19 154.82 101.96 154.12 108.82 L 169.95 115.23 C 172.09 116.55 173 118.28 172.34 120.52 L 166.62 134.07 C 165.49 135.83 163.92 136.74 161.63 136.14 L 145.64 129.7 C 141.44 135.45 136.19 140.55 130.29 144.98 L 136.6 160.58 C 137.6 163.06 136.32 165.17 134.84 165.96 L 119.48 172.37 C 117.44 172.72 115.59 172.56 114.68 169.98 L 108.21 154.01 C 102.37 155.67 95.08 156.08 87.64 154.16 L 81.23 169.92 C 80.19 171.55 79.03 173 76.2 172.31 L 61.22 166.08 C 59.12 164.57 58.14 162.72 59.49 160.17 L 66.59 145.99 C 60.31 141.24 55.07 136.18 50.95 130.83 L 35.69 137.09 C 33.27 137.97 31.32 137.37 29.94 135.17 L 23.85 120.55 C 23.19 118.63 23.69 116.33 25.95 115.23 L 41.75 108.38 C 41.12 101.49 41.06 94.64 41.69 87.75 Z M 58.74 97.72 C 58.74 122.06 78.78 137.15 98.31 137.15 C 119.58 137.15 137.13 119.1 137.13 98.09 C 137.13 75.58 118.23 58.69 98.44 58.69 C 79.06 58.69 58.74 73.31 58.74 97.72 Z" fill="none" stroke="rgb(0, 0, 0)" stroke-miterlimit="10" transform="rotate(202.1,98,98)" pointer-events="all"/></g></g></g></g></g></svg>