<?xml version="1.0" encoding="UTF-8"?>
<!-- Do not edit this file with editors other than draw.io -->
<!DOCTYPE svg PUBLIC "-//W3C//DTD SVG 1.1//EN" "http://www.w3.org/Graphics/SVG/1.1/DTD/svg11.dtd">
<svg xmlns="http://www.w3.org/2000/svg" xmlns:xlink="http://www.w3.org/1999/xlink" version="1.1" width="212px" height="212px" viewBox="-0.5 -0.5 212 212" content="&lt;mxfile host=&quot;Electron&quot; agent=&quot;Mozilla/5.0 (Macintosh; Intel Mac OS X 10_15_7) AppleWebKit/537.36 (KHTML, like Gecko) draw.io/24.7.17 Chrome/128.0.6613.36 Electron/32.0.1 Safari/537.36&quot; version=&quot;24.7.17&quot; scale=&quot;1&quot; border=&quot;0&quot;&gt;&#10;  &lt;diagram name=&quot;Page-1&quot; id=&quot;kfZ6x5uVG5_72cRNtfeV&quot;&gt;&#10;    &lt;mxGraphModel dx=&quot;395&quot; dy=&quot;1455&quot; grid=&quot;1&quot; gridSize=&quot;10&quot; guides=&quot;1&quot; tooltips=&quot;1&quot; connect=&quot;1&quot; arrows=&quot;1&quot; fold=&quot;1&quot; page=&quot;1&quot; pageScale=&quot;1&quot; pageWidth=&quot;827&quot; pageHeight=&quot;1169&quot; math=&quot;0&quot; shadow=&quot;0&quot;&gt;&#10;      &lt;root&gt;&#10;        &lt;mxCell id=&quot;0&quot; /&gt;&#10;        &lt;mxCell id=&quot;1&quot; parent=&quot;0&quot; /&gt;&#10;        &lt;mxCell id=&quot;2&quot; value=&quot;&quot; style=&quot;sketch=0;pointerEvents=1;shadow=0;dashed=0;html=1;strokeColor=default;fillColor=default;labelPosition=center;verticalLabelPosition=bottom;verticalAlign=top;outlineConnect=0;align=center;shape=mxgraph.office.concepts.settings;direction=west;flipV=0;rotation=22.1;strokeWidth=12;&quot; vertex=&quot;1&quot; parent=&quot;1&quot;&gt;&#10;          &lt;mxGeometry x=&quot;400&quot; y=&quot;200&quot; width=&quot;150&quot; height=&quot;150&quot; as=&quot;geometry&quot; /&gt;&#10;        &lt;/mxCell&gt;&#10;      &lt;/root&gt;&#10;    &lt;/mxGraphModel&gt;&#10;  &lt;/diagram&gt;&#10;&lt;/mxfile&gt;&#10;"><defs/><g><g data-cell-id="0"><g data-cell-id="1"><g data-cell-id="abqtyagXLSSpsyh-VU5P-3"/><g data-cell-id="abqtyagXLSSpsyh-VU5P-4"/><g data-cell-id="abqtyagXLSSpsyh-VU5P-6"/><g data-cell-id="abqtyagXLSSpsyh-VU5P-8"/><g data-cell-id="abqtyagXLSSpsyh-VU5P-9"/><g data-cell-id="abqtyagXLSSpsyh-VU5P-10"/><g data-cell-id="abqtyagXLSSpsyh-VU5P-12"><g><rect x="30" y="30" width="150" height="150" fill="none" stroke="none" transform="rotate(202.1,105,105)" pointer-events="all"/><path d="M 48.69 94.75 L 33.2 88.33 C 30.94 87.08 30 85.28 30.88 82.7 L 36.78 68.58 C 38.07 66.45 39.77 65.22 42.41 66.29 L 56.88 73.58 C 61.5 68.11 66.56 62.67 72.18 57.96 L 65.84 42.42 C 65.36 40.57 65.18 38.74 67.85 37.01 L 82.39 30.88 C 85.18 30 86.75 31.19 87.69 32.83 L 94.2 48.74 C 100.73 47.45 107.2 46.86 114.83 49.09 L 121.36 32.92 C 122.78 30.69 124.63 30.06 126.83 30.88 L 141.31 37.01 C 143.69 38.52 143.91 40.31 143.35 42.23 L 136.91 58.14 C 142.56 62.67 147.78 67.52 151.98 72.99 L 167.56 66.64 C 170.36 65.85 172.02 66.92 173.06 68.99 L 179.15 83.46 C 179.56 85.6 179.09 87.39 176.98 88.58 L 161.16 95 C 161.91 101.19 161.82 108.96 161.12 115.82 L 176.95 122.23 C 179.09 123.55 180 125.28 179.34 127.52 L 173.62 141.07 C 172.49 142.83 170.92 143.74 168.63 143.14 L 152.64 136.7 C 148.44 142.45 143.19 147.55 137.29 151.98 L 143.6 167.58 C 144.6 170.06 143.32 172.17 141.84 172.96 L 126.48 179.37 C 124.44 179.72 122.59 179.56 121.68 176.98 L 115.21 161.01 C 109.37 162.67 102.08 163.08 94.64 161.16 L 88.23 176.92 C 87.19 178.55 86.03 180 83.2 179.31 L 68.22 173.08 C 66.12 171.57 65.14 169.72 66.49 167.17 L 73.59 152.99 C 67.31 148.24 62.07 143.18 57.95 137.83 L 42.69 144.09 C 40.27 144.97 38.32 144.37 36.94 142.17 L 30.85 127.55 C 30.19 125.63 30.69 123.33 32.95 122.23 L 48.75 115.38 C 48.12 108.49 48.06 101.64 48.69 94.75 Z M 65.74 104.72 C 65.74 129.06 85.78 144.15 105.31 144.15 C 126.58 144.15 144.13 126.1 144.13 105.09 C 144.13 82.58 125.23 65.69 105.44 65.69 C 86.06 65.69 65.74 80.31 65.74 104.72 Z" fill="rgb(255, 255, 255)" stroke="rgb(0, 0, 0)" stroke-width="12" stroke-miterlimit="10" transform="rotate(202.1,105,105)" pointer-events="all"/></g></g><g data-cell-id="abqtyagXLSSpsyh-VU5P-20"/><g data-cell-id="abqtyagXLSSpsyh-VU5P-23"/><g data-cell-id="abqtyagXLSSpsyh-VU5P-24"/><g data-cell-id="abqtyagXLSSpsyh-VU5P-25"/><g data-cell-id="abqtyagXLSSpsyh-VU5P-26"/><g data-cell-id="abqtyagXLSSpsyh-VU5P-27"/><g data-cell-id="abqtyagXLSSpsyh-VU5P-28"/><g data-cell-id="abqtyagXLSSpsyh-VU5P-14"/><g data-cell-id="abqtyagXLSSpsyh-VU5P-15"/><g data-cell-id="abqtyagXLSSpsyh-VU5P-16"/><g data-cell-id="abqtyagXLSSpsyh-VU5P-18"/><g data-cell-id="abqtyagXLSSpsyh-VU5P-19"/><g data-cell-id="abqtyagXLSSpsyh-VU5P-30"/><g data-cell-id="abqtyagXLSSpsyh-VU5P-29"/><g data-cell-id="abqtyagXLSSpsyh-VU5P-31"/><g data-cell-id="abqtyagXLSSpsyh-VU5P-32"/><g data-cell-id="abqtyagXLSSpsyh-VU5P-33"/><g data-cell-id="abqtyagXLSSpsyh-VU5P-34"/><g data-cell-id="abqtyagXLSSpsyh-VU5P-35"/><g data-cell-id="abqtyagXLSSpsyh-VU5P-36"/><g data-cell-id="abqtyagXLSSpsyh-VU5P-37"/></g></g></g></svg>